<?xml version="1.0" encoding="UTF-8" standalone="no"?>
<!DOCTYPE svg PUBLIC "-//W3C//DTD SVG 1.1//EN"
 "http://www.w3.org/Graphics/SVG/1.1/DTD/svg11.dtd">
<!-- Generated by graphviz version 2.38.0 (20140413.2041)
 -->
<!-- Title: %3 Pages: 1 -->
<svg width="921pt" height="484pt"
 viewBox="0.00 0.00 921.00 484.00" xmlns="http://www.w3.org/2000/svg" xmlns:xlink="http://www.w3.org/1999/xlink">
<g id="graph0" class="graph" transform="scale(1 1) rotate(0) translate(4 480)">
<title>%3</title>
<polygon fill="white" stroke="none" points="-4,4 -4,-480 917,-480 917,4 -4,4"/>
<!-- kTabletLoading -->
<g id="node1" class="node"><title>kTabletLoading</title>
<ellipse fill="none" stroke="black" cx="396" cy="-458" rx="71.2141" ry="18"/>
<text text-anchor="middle" x="396" y="-453.4" font-family="Times,serif" font-size="14.00">kTabletLoading</text>
</g>
<!-- kTabletReady -->
<g id="node3" class="node"><title>kTabletReady</title>
<ellipse fill="none" stroke="black" cx="396" cy="-370" rx="63.9567" ry="18"/>
<text text-anchor="middle" x="396" y="-365.4" font-family="Times,serif" font-size="14.00">kTabletReady</text>
</g>
<!-- kTabletLoading&#45;&gt;kTabletReady -->
<g id="edge7" class="edge"><title>kTabletLoading&#45;&gt;kTabletReady</title>
<path fill="none" stroke="black" d="M396,-439.597C396,-427.746 396,-411.817 396,-398.292"/>
<polygon fill="black" stroke="black" points="399.5,-398.084 396,-388.084 392.5,-398.084 399.5,-398.084"/>
<text text-anchor="middle" x="435" y="-409.4" font-family="Times,serif" font-size="14.00">kTsLoadSucc</text>
</g>
<!-- kTabletOffline -->
<g id="node6" class="node"><title>kTabletOffline</title>
<ellipse fill="none" stroke="black" cx="400" cy="-106" rx="67.1642" ry="18"/>
<text text-anchor="middle" x="400" y="-101.4" font-family="Times,serif" font-size="14.00">kTabletOffline</text>
</g>
<!-- kTabletLoading&#45;&gt;kTabletOffline -->
<g id="edge8" class="edge"><title>kTabletLoading&#45;&gt;kTabletOffline</title>
<path fill="none" stroke="black" d="M331.102,-450.595C246.72,-440.432 110,-416.886 110,-371 110,-371 110,-371 110,-193 110,-147.663 241.923,-124.361 327.813,-113.994"/>
<polygon fill="black" stroke="black" points="328.264,-117.465 337.788,-112.823 327.448,-110.513 328.264,-117.465"/>
<text text-anchor="middle" x="146" y="-277.4" font-family="Times,serif" font-size="14.00">kTsLoadFail</text>
</g>
<!-- kTabletLoading&#45;&gt;kTabletOffline -->
<g id="edge10" class="edge"><title>kTabletLoading&#45;&gt;kTabletOffline</title>
<path fill="none" stroke="black" d="M329.719,-451.456C279.111,-443.158 218,-422.481 218,-371 218,-371 218,-371 218,-193 218,-142.627 275.698,-121.715 326.121,-113.057"/>
<polygon fill="black" stroke="black" points="326.757,-116.5 336.09,-111.484 325.666,-109.586 326.757,-116.5"/>
<text text-anchor="middle" x="249" y="-277.4" font-family="Times,serif" font-size="14.00">kTsRestart</text>
</g>
<!-- kTabletLoading&#45;&gt;kTabletOffline -->
<g id="edge11" class="edge"><title>kTabletLoading&#45;&gt;kTabletOffline</title>
<path fill="none" stroke="black" d="M438.658,-443.499C452.03,-438.074 466.331,-430.947 478,-422 530.237,-381.948 679.903,-230.507 643,-176 623.338,-146.958 533.39,-127.272 468.658,-116.587"/>
<polygon fill="black" stroke="black" points="468.929,-113.086 458.499,-114.949 467.815,-119.996 468.929,-113.086"/>
<text text-anchor="middle" x="654.5" y="-277.4" font-family="Times,serif" font-size="14.00">kTsOffline</text>
</g>
<!-- kTabletDelayOffline -->
<g id="node8" class="node"><title>kTabletDelayOffline</title>
<ellipse fill="none" stroke="black" cx="236" cy="-18" rx="89.4388" ry="18"/>
<text text-anchor="middle" x="236" y="-13.4" font-family="Times,serif" font-size="14.00">kTabletDelayOffline</text>
</g>
<!-- kTabletLoading&#45;&gt;kTabletDelayOffline -->
<g id="edge9" class="edge"><title>kTabletLoading&#45;&gt;kTabletDelayOffline</title>
<path fill="none" stroke="black" d="M325.203,-455.961C211.299,-452.348 0,-436.78 0,-371 0,-371 0,-371 0,-105 0,-70.5021 90.1463,-45.7966 159.011,-31.9566"/>
<polygon fill="black" stroke="black" points="159.865,-35.3556 169.003,-29.9936 158.516,-28.4869 159.865,-35.3556"/>
<text text-anchor="middle" x="47.5" y="-233.4" font-family="Times,serif" font-size="14.00">kTsDelayOffline</text>
</g>
<!-- kTabletLoadFail -->
<g id="node2" class="node"><title>kTabletLoadFail</title>
<ellipse fill="none" stroke="black" cx="779" cy="-18" rx="73.239" ry="18"/>
<text text-anchor="middle" x="779" y="-13.4" font-family="Times,serif" font-size="14.00">kTabletLoadFail</text>
</g>
<!-- kTabletLoadFail&#45;&gt;kTabletLoading -->
<g id="edge18" class="edge"><title>kTabletLoadFail&#45;&gt;kTabletLoading</title>
<path fill="none" stroke="black" d="M800.337,-35.2741C818.271,-50.9616 841,-76.4706 841,-105 841,-371 841,-371 841,-371 841,-444.164 606.179,-456.413 477.695,-457.64"/>
<polygon fill="black" stroke="black" points="477.47,-454.141 467.497,-457.716 477.523,-461.141 477.47,-454.141"/>
<text text-anchor="middle" x="877" y="-233.4" font-family="Times,serif" font-size="14.00">kLoadTablet</text>
</g>
<!-- kTabletUnloading -->
<g id="node4" class="node"><title>kTabletUnloading</title>
<ellipse fill="none" stroke="black" cx="461" cy="-282" rx="78.472" ry="18"/>
<text text-anchor="middle" x="461" y="-277.4" font-family="Times,serif" font-size="14.00">kTabletUnloading</text>
</g>
<!-- kTabletReady&#45;&gt;kTabletUnloading -->
<g id="edge15" class="edge"><title>kTabletReady&#45;&gt;kTabletUnloading</title>
<path fill="none" stroke="black" d="M408.842,-352.009C418.279,-339.524 431.257,-322.352 441.907,-308.261"/>
<polygon fill="black" stroke="black" points="444.947,-310.044 448.185,-299.956 439.363,-305.823 444.947,-310.044"/>
<text text-anchor="middle" x="479.5" y="-321.4" font-family="Times,serif" font-size="14.00">kUnLoadTablet</text>
</g>
<!-- kTabletReady&#45;&gt;kTabletOffline -->
<g id="edge16" class="edge"><title>kTabletReady&#45;&gt;kTabletOffline</title>
<path fill="none" stroke="black" d="M377.048,-352.524C348.412,-326.225 295.306,-271.612 275,-212 269.841,-196.855 266.867,-189.779 275,-176 290.205,-150.238 318.853,-133.432 344.89,-122.862"/>
<polygon fill="black" stroke="black" points="346.248,-126.09 354.335,-119.245 343.744,-119.553 346.248,-126.09"/>
<text text-anchor="middle" x="322.5" y="-233.4" font-family="Times,serif" font-size="14.00">kTsOffline</text>
</g>
<!-- kTabletUnloadFail -->
<g id="node5" class="node"><title>kTabletUnloadFail</title>
<ellipse fill="none" stroke="black" cx="365" cy="-194" rx="81.3389" ry="18"/>
<text text-anchor="middle" x="365" y="-189.4" font-family="Times,serif" font-size="14.00">kTabletUnloadFail</text>
</g>
<!-- kTabletUnloading&#45;&gt;kTabletUnloadFail -->
<g id="edge13" class="edge"><title>kTabletUnloading&#45;&gt;kTabletUnloadFail</title>
<path fill="none" stroke="black" d="M411.989,-267.882C400.181,-262.717 388.528,-255.636 380,-246 374.173,-239.416 370.605,-230.67 368.423,-222.282"/>
<polygon fill="black" stroke="black" points="371.833,-221.488 366.389,-212.399 364.977,-222.899 371.833,-221.488"/>
<text text-anchor="middle" x="424" y="-233.4" font-family="Times,serif" font-size="14.00">kTsUnLoadFail</text>
</g>
<!-- kTabletUnloading&#45;&gt;kTabletOffline -->
<g id="edge12" class="edge"><title>kTabletUnloading&#45;&gt;kTabletOffline</title>
<path fill="none" stroke="black" d="M465.042,-263.952C470.656,-235.97 477.564,-179.656 453,-142 449.521,-136.666 444.914,-131.958 439.866,-127.864"/>
<polygon fill="black" stroke="black" points="441.822,-124.96 431.668,-121.936 437.72,-130.632 441.822,-124.96"/>
<text text-anchor="middle" x="518" y="-189.4" font-family="Times,serif" font-size="14.00">kTsUnLoadSucc</text>
</g>
<!-- kTabletUnloading&#45;&gt;kTabletOffline -->
<g id="edge14" class="edge"><title>kTabletUnloading&#45;&gt;kTabletOffline</title>
<path fill="none" stroke="black" d="M497.769,-265.906C538.032,-247.096 593.792,-212.901 569,-176 546.787,-142.938 505.651,-125.708 469.525,-116.734"/>
<polygon fill="black" stroke="black" points="470.02,-113.256 459.489,-114.416 468.445,-120.077 470.02,-113.256"/>
<text text-anchor="middle" x="607.5" y="-189.4" font-family="Times,serif" font-size="14.00">kTsOffline</text>
</g>
<!-- kTabletUnloadFail&#45;&gt;kTabletOffline -->
<g id="edge17" class="edge"><title>kTabletUnloadFail&#45;&gt;kTabletOffline</title>
<path fill="none" stroke="black" d="M371.915,-176.009C376.852,-163.877 383.591,-147.32 389.229,-133.465"/>
<polygon fill="black" stroke="black" points="392.572,-134.537 393.099,-123.956 386.088,-131.898 392.572,-134.537"/>
<text text-anchor="middle" x="417.5" y="-145.4" font-family="Times,serif" font-size="14.00">kTsOffline</text>
</g>
<!-- kTabletOffline&#45;&gt;kTabletLoading -->
<g id="edge1" class="edge"><title>kTabletOffline&#45;&gt;kTabletLoading</title>
<path fill="none" stroke="black" d="M467.126,-106.885C548.099,-108.014 678.202,-114.275 717,-142 737.382,-156.565 741,-167.949 741,-193 741,-371 741,-371 741,-371 741,-425.383 577.565,-445.645 475.672,-452.993"/>
<polygon fill="black" stroke="black" points="475.135,-449.522 465.401,-453.705 475.619,-456.505 475.135,-449.522"/>
<text text-anchor="middle" x="777" y="-277.4" font-family="Times,serif" font-size="14.00">kLoadTablet</text>
</g>
<!-- kTabletOffline&#45;&gt;kTabletLoadFail -->
<g id="edge3" class="edge"><title>kTabletOffline&#45;&gt;kTabletLoadFail</title>
<path fill="none" stroke="black" d="M463.758,-100.372C514.997,-95.6385 588.478,-86.5556 651,-70 680.805,-62.1078 713.044,-49.2347 737.712,-38.3968"/>
<polygon fill="black" stroke="black" points="739.404,-41.4745 747.111,-34.2048 736.553,-35.0814 739.404,-41.4745"/>
<text text-anchor="middle" x="744.5" y="-57.4" font-family="Times,serif" font-size="14.00">kTabletLoadFail</text>
</g>
<!-- kTabletDisable -->
<g id="node7" class="node"><title>kTabletDisable</title>
<ellipse fill="none" stroke="black" cx="532" cy="-18" rx="68.3474" ry="18"/>
<text text-anchor="middle" x="532" y="-13.4" font-family="Times,serif" font-size="14.00">kTabletDisable</text>
</g>
<!-- kTabletOffline&#45;&gt;kTabletDisable -->
<g id="edge4" class="edge"><title>kTabletOffline&#45;&gt;kTabletDisable</title>
<path fill="none" stroke="black" d="M462.761,-99.3957C502.465,-94.4021 548.57,-85.4228 561,-70 567.557,-61.8639 564.201,-52.0581 557.825,-43.2275"/>
<polygon fill="black" stroke="black" points="560.424,-40.8809 551.317,-35.468 555.061,-45.3791 560.424,-40.8809"/>
<text text-anchor="middle" x="606" y="-57.4" font-family="Times,serif" font-size="14.00">kTableDisable</text>
</g>
<!-- kTabletOffline&#45;&gt;kTabletDelayOffline -->
<g id="edge2" class="edge"><title>kTabletOffline&#45;&gt;kTabletDelayOffline</title>
<path fill="none" stroke="black" d="M381.711,-88.6045C365.581,-74.1932 344.283,-55.3077 342,-54 329.087,-46.6051 314.385,-40.4976 300.128,-35.5705"/>
<polygon fill="black" stroke="black" points="300.95,-32.1561 290.357,-32.3467 298.757,-38.8036 300.95,-32.1561"/>
<text text-anchor="middle" x="407.5" y="-57.4" font-family="Times,serif" font-size="14.00">kTsDelayOffline</text>
</g>
<!-- kTabletDisable&#45;&gt;kTabletOffline -->
<g id="edge19" class="edge"><title>kTabletDisable&#45;&gt;kTabletOffline</title>
<path fill="none" stroke="black" d="M506.783,-34.7973C497.852,-40.6148 487.833,-47.3993 479,-54 470.157,-60.6085 469.023,-63.6397 460,-70 452.915,-74.9937 445.079,-79.9423 437.472,-84.4774"/>
<polygon fill="black" stroke="black" points="435.581,-81.5283 428.706,-89.5893 439.108,-87.5753 435.581,-81.5283"/>
<text text-anchor="middle" x="518" y="-57.4" font-family="Times,serif" font-size="14.00">kTableEnable</text>
</g>
<!-- kTabletDelayOffline&#45;&gt;kTabletOffline -->
<g id="edge5" class="edge"><title>kTabletDelayOffline&#45;&gt;kTabletOffline</title>
<path fill="none" stroke="black" d="M208.804,-35.3923C195.531,-45.4341 184.306,-58.5197 194,-70 210.621,-89.683 272.209,-98.2989 323.751,-102.069"/>
<polygon fill="black" stroke="black" points="323.694,-105.573 333.909,-102.76 324.17,-98.5895 323.694,-105.573"/>
<text text-anchor="middle" x="225.5" y="-57.4" font-family="Times,serif" font-size="14.00">kTsOffline</text>
</g>
<!-- kTabletDelayOffline&#45;&gt;kTabletOffline -->
<g id="edge6" class="edge"><title>kTabletDelayOffline&#45;&gt;kTabletOffline</title>
<path fill="none" stroke="black" d="M245.439,-36.0078C252.484,-47.2107 263.1,-61.3554 276,-70 292.85,-81.292 313.322,-88.9757 332.734,-94.1907"/>
<polygon fill="black" stroke="black" points="331.91,-97.5922 342.461,-96.628 333.611,-90.8021 331.91,-97.5922"/>
<text text-anchor="middle" x="307" y="-57.4" font-family="Times,serif" font-size="14.00">kTsRestart</text>
</g>
</g>
</svg>
